<?xml version="1.0" encoding="utf-8"?>
<!-- Generator: Adobe Illustrator 19.0.0, SVG Export Plug-In . SVG Version: 6.00 Build 0)  -->
<svg version="1.1" id="Layer_1" xmlns="http://www.w3.org/2000/svg" xmlns:xlink="http://www.w3.org/1999/xlink" x="0px" y="0px"
	 viewBox="0 0 411.1 365" style="enable-background:new 0 0 411.1 365;" xml:space="preserve">
<style type="text/css">
	.st0{fill:#13385E;}
	.st1{clip-path:url(#SVGID_2_);}
	.st2{fill:#05718E;}
	.st3{fill:#FFFFFF;}
	.st4{fill:#A56B28;}
</style>
<g>
	<path class="st0" d="M334.5,117.5c10.7,10.7,10.7,28.3,0,39L225.1,266c-10.7,10.7-28.3,10.7-39,0L76.6,156.5
		c-10.7-10.7-10.7-28.3,0-39L186.1,8c10.7-10.7,28.3-10.7,39,0L334.5,117.5z"/>
	<g>
		<defs>
			<path id="SVGID_1_" d="M325.5,118.9c10,10,10,26.3,0,36.2L223.7,256.9c-10,10-26.3,10-36.2,0L85.7,155.1c-10-10-10-26.3,0-36.2
				L187.5,17.1c10-10,26.3-10,36.2,0L325.5,118.9z"/>
		</defs>
		<clipPath id="SVGID_2_">
			<use xlink:href="#SVGID_1_"  style="overflow:visible;"/>
		</clipPath>
		<g class="st1">
			<g>
				<path class="st2" d="M181.5,28.1c2,3.1,2.6,7.1,3.1,10.7c0.5,3.4,1.1,10.6-2.4,12.8c-0.5,0.3-1.2,1-0.7,1.6
					c7.2,8.5,25.1,3.1,23.1-9c-0.9,0.4-1.7,0.8-2.6,1.3c8.7,7.1,20.9,12.7,32.3,9.9c3.3-0.8,6.2-3,9.1-4.9c6-3.9,12.1-4.3,19-2.4
					c1.3,0.3,3.4-1.6,1.7-2c-9.2-2.5-16.3-1.2-24.1,4c-11.7,7.7-25.8,1.8-35.7-6.3c-0.9-0.7-2.8,0-2.6,1.3c1.5,9.4-12,13.5-17.6,6.9
					c-0.2,0.5-0.4,1-0.7,1.6c7.7-4.6,4.5-20.4,0.7-26.6C183.4,25.6,180.6,26.8,181.5,28.1L181.5,28.1z"/>
				<path class="st2" d="M200.8,12.9c0.2,8,4,16.2,10.6,20.7c6.1,4.2,15.5,4.5,21.5,0c4.1-3.1,5.5-10.1,2.7-14.5
					c-1.2-2-4.1-1.1-5.9-0.6c-4.2,1.3-8.5,2.8-11.8-1.2c-1-1.3-1.4-3.4-1.2-5c0.1-1.2-2.8-0.6-2.9,0.4c-0.5,5.7,3.6,8.6,8.8,9.1
					c2.1,0.2,8.9-2.9,10.1-1.8c1.6,1.6,1.5,5,1.2,7c-1.5,11.3-16,9.2-22.4,3.6c-5-4.4-7.7-11.8-7.8-18.4
					C203.7,11.2,200.8,11.8,200.8,12.9L200.8,12.9z"/>
				<path class="st2" d="M219.2,54.1c6.4,8.8,10.2,18.9,6,29.6c-2,5.1-5.5,9.6-9.5,13.3c-3.9,3.6-9.4,4.9-13.1,8.5
					c-4.6,4.5-5.8,11.4-5.1,17.6c1.3,10.1,0.5,18.2-7.6,25.4c0.9-0.2,1.8-0.3,2.8-0.5c-1.3-8.3-5.7-15.5-6.5-24.1
					c-0.5-5.7,0.2-11.9,1.2-17.5c0.7-3.6,2.1-7.1,5.7-8.7c0.2-0.1,1.5-0.8,0.7-1c-10.6-2.4-13.2-16.9-6.7-24.7
					c7.6-9.2,19.4,2.9,11.3,7.1c-4.7,2.5-5.4,6.9-1.1,10.5c6.7,5.5,17.2-1,19.6-7.8c4-11.5-4.9-24.5-13.2-31.4
					c-0.6-0.5-3.2,0.6-2.7,1c9.1,7.5,19.6,23.9,10.6,35.3c-3.1,3.9-8.5,4.3-12.2,1.4c-2.3-1.9-2.9-4.8-1.1-7.3
					c0.6-0.8,2.4-1.4,3.3-2.1c2.8-2,3.1-5.9,0.9-8.5c-2.8-3.3-9.1-2.5-12.6-1.4c-3.8,1.2-6.4,4-8,7.6c-3.6,8.4,0.3,19.5,9.5,21.6
					c0.2-0.3,0.4-0.6,0.7-1c-7.3,3.1-7.9,10.5-8.5,17.7c-0.6,6.9-0.3,13.4,1.6,20.1c1.3,4.7,3.8,9.2,4.6,14.1
					c0.1,0.8,2.5-0.2,2.8-0.5c7.2-6.5,9.5-14.4,8.2-23.8c-1.2-8.7-0.2-17.4,8.6-21.7c8.7-4.2,15.5-11.8,19.1-20.7
					c4-10.1-0.3-20.5-6.4-28.8C221.6,52.6,219,53.8,219.2,54.1L219.2,54.1z"/>
			</g>
			<g>
				<path class="st2" d="M170.6,21.7c-3.7,5.9-4.7,15.3-2.8,21.9c0.4,1.3,1.2,2.5,2.2,3.4c1.3,1.1-6.1,2.8-7,2.7
					c-5.5-0.4-10.9-5.4-10-11.1c0.2-1.4-2.2-0.5-2.6-0.2c-10.1,8.2-23.8,13.4-35.5,5.7c-7.7-5-14.7-6.2-23.6-3.8
					c-1.8,0.5-1.3,2.1,0.4,1.7c6.8-1.8,12.7-1.5,18.7,2.2c3.4,2.1,6.4,4.4,10.3,5.3c11.2,2.8,23.7-3.7,32.1-10.5
					c-0.9-0.1-1.8-0.1-2.6-0.2c-2,12.2,16.1,16.3,23,8.1c0.3-0.4,0.4-0.8,0-1.1c-6.4-3.8-2.9-19.1,0.2-24.2
					C174.1,20.7,171.2,20.8,170.6,21.7L170.6,21.7z"/>
				<path class="st2" d="M151,7c-0.1,7.2-3.3,14.7-9.1,19.2c-7,5.5-19.3,4.3-21.2-5.5c-0.4-2-0.2-4.9,1.1-6.6
					c0.4-0.5,4.6,1.4,5.2,1.5c1.9,0.6,3.8,0.7,5.7,0.5c5-0.4,8.6-4.7,8.1-9.7c-0.1-1.2-3-0.5-2.9,0.8c0.1,1.4-0.2,2.8-0.8,4.1
					c-2.3,5.3-8.8,2.2-12.6,1.1c-2-0.6-4.1-0.4-5.4,1.3c-3.3,4.2-1.2,11.4,2.4,14.7c5.9,5.4,16.3,3.1,22.2-1
					c6.4-4.4,10-13.1,10.1-20.7C153.9,5.3,151,5.8,151,7L151,7z"/>
				<path class="st2" d="M132.7,48.1c-6,8.3-10,17.8-6.9,28c2.8,9.4,10.6,17,19.1,21.5c8.3,4.4,10.4,12.2,9.1,21.1
					c-1.4,9.7,0.5,17.9,8,24.6c0.5,0.5,2.7,0,2.8-0.7c0.6-4,2.5-7.8,3.8-11.6c2-5.8,2.9-11.7,2.7-17.8c-0.2-7.5,0.1-18.6-8.1-22.1
					c-0.3,0.4-0.7,0.8-1,1.2c8.9-2,12.8-10.2,11.5-18.9c-1.4-9.6-12.1-14.3-20.4-9.2c-2.9,1.8-3.3,5.4-1.5,8.1
					c1.5,2.4,4.4,2.5,5.6,5.3c1.5,3.6-3.3,6.5-6.1,6.7c-2.3,0.1-4.5-0.9-6.4-2.2c-5.3-3.6-5.6-10.7-4.5-16.3
					c1.5-8.2,6.8-15.2,13.1-20.4c1.2-1-1.7-0.8-2.3-0.3c-8.6,7.1-15.7,18.2-13.9,29.8c1.4,9,11.1,13,18.9,9.3
					c3.7-1.8,5.5-6.1,2.9-9.5c-1.5-1.9-3.9-2-5.1-4.5c-2.6-5.6,5.4-7.2,9.5-6c11.6,3.6,9.2,24.4-1.6,26.9c-0.3,0.1-2,0.8-1,1.2
					c7.9,3.3,7.2,14.5,7.6,21.6c0.3,6-0.8,11.8-2.7,17.4c-1.3,3.9-3.2,7.6-3.8,11.6c0.9-0.2,1.9-0.5,2.8-0.7
					c-7.7-6.9-9.2-14.9-7.8-24.7c0.9-6,0-12.7-4.1-17.5c-3.3-3.8-9-5.3-12.9-8.4c-4.4-3.5-7.7-8.3-10.2-13.3
					c-5.2-10.5-1-21.5,5.4-30.4C136.1,47.1,133.2,47.5,132.7,48.1L132.7,48.1z"/>
			</g>
			<g>
				<path class="st2" d="M193.7,260c9-7,12.9-18.9,12.4-30c-0.3-5.8-2.5-9.5-6.2-13.6c-4.6-5.3-10.4-14.4-6.3-21.5
					c0-0.1,0-0.2-0.1-0.3c-3.4-2-8.3,0.4-11.1,2.5c-6.3,4.7-3.2,11.7,1.3,16.4c0.3-0.3,0.6-0.6,0.8-0.9c-4,1.3-8,4.6-8.1,9.1
					c-0.1,5,4.1,5.7,8.1,4.8c2.1-0.5,4.8-3,6.1-1.9c1.9,1.6,2.1,5.2,2.2,7.5c0.4,7.3-2.8,16.5-10.4,19c-0.3,0.1-1.2,0.5-0.8,0.9
					c2.8,3.2,6,6,9.4,8.5c0.7,0.5,3.2-0.6,2.7-1c-3.4-2.5-6.6-5.3-9.4-8.5c-0.3,0.3-0.6,0.6-0.8,0.9c10.1-3.3,14.9-16.7,11.1-26.3
					c-1.7-4.2-5-2.6-7.9-1c-9.4,5.1-8.9-8.6-1.1-11.1c0.3-0.1,1.2-0.5,0.8-0.9c-2.9-3-5.5-6.5-4.6-10.8c0.6-3.3,4.8-6.9,8.3-6.3
					c0.2,0-0.8,3.9-0.9,4.3c-0.1,2.1,0.3,4,0.9,6.1c1.3,4.3,4.2,8.2,7,11.7c2.3,2.8,4.2,4.8,5.2,8.3c1.1,3.8,1,7.9,0.6,11.7
					c-0.9,8.4-4.7,17.1-11.5,22.4C190.3,260.8,193.2,260.4,193.7,260z"/>
				<path class="st2" d="M168.5,253c-7.2-3.2-11.9-9.9-14.6-17.1c-1.2-3.2-1.9-6.7-1.7-10.2c0.2-3.8,2.7-7.1,4.1-10.6
					c1.3-3.3,2.4-7.2,2-10.7c-0.2-1.7-0.5-3.1-1.3-4.6c-0.7-1.4-1.7-1.3,0.2-1.4c2.6-0.1,5.2,1.3,6.7,3.3c2.4,3.1,0.3,7.5-1.3,10.3
					c-0.4,0.6,0.3,1.2,0.9,1.2c5.5,0.4,11.2,9.6,2.7,8.7c-3.9-0.4-6.9-1.9-7.9,3.1c-1.9,9,6.1,20,15.1,20.6
					c-0.3-0.4-0.6-0.8-0.9-1.2c-1.7,3.2-3.7,6.2-6.1,9.1c-1.2,1.4,1.6,1.9,2.4,0.9c2.5-3,4.6-6.2,6.4-9.6c0.3-0.6-0.3-1.2-0.9-1.2
					c-7-0.5-11-6.8-12.7-13c-0.6-2.2-1-4.9-0.1-7c0.1-0.2,6.2,0.7,7.2,0.5c3.4-0.6,5.4-3,4.6-6.5c-0.9-3.9-5.2-6.2-8.9-6.4
					c0.3,0.4,0.6,0.8,0.9,1.2c2.9-5,4-11.1-1.7-14.5c-3-1.8-8-2.5-10.7,0.2c-0.3,0.2-0.4,0.8-0.1,1.1c5.2,5.5,1.5,14.5-1.4,20.2
					c-2,4-2.6,7.4-1.9,11.9c1.4,9.8,8.2,19.6,17.3,23.7C168,255.5,170.2,253.7,168.5,253z"/>
				<path class="st2" d="M218.1,261.3c-5.3-7.2-14.1-34.8,3.2-32.5c0.5,0.1,2.4-0.2,2.4-1c-0.6-7.2,2.2-14.5,8.3-18.7
					c5.2-3.6,12-2.2,17.5-0.2c2.7,1,5.4,2.3,4.9,5.6c-0.5,3.5-4.5,3-7.2,2.7c-5-0.5-11.9,1-14,6.2c-2.4,6,9.6,9.4,13.5,10.1
					c0.7,0.1,3.4-1,1.8-1.3c-4.3-0.8-13.4-3.4-12.5-9.3c1.1-6.9,11.4-3,16.1-4.3c2.6-0.7,4.7-2.8,5.1-5.5c0.6-4.2-5.7-5.6-8.5-6.5
					c-14.9-4.8-29.5,6-28.1,21.8c0.8-0.3,1.6-0.7,2.4-1c-20.9-2.9-15.5,24.3-7.8,34.8C215.8,263,218.6,262.1,218.1,261.3
					L218.1,261.3z"/>
				<path class="st2" d="M216.4,228.2c1.4-6.2-2.6-12.3-5.3-17.6c-1.4-2.7-2.7-5.4-3.3-8.4c-0.9-4.3,2-12.6,7.5-8.8
					c0.5,0.3,2.8-0.1,2.8-0.9c0-5.9-1.8-11.7-7.8-13.9c-4.7-1.8-10.6-0.3-15,1.6c-1,0.4-1.9,0.8-2.9,1.3c-1.9,0.9-2,1-0.3,0.4
					c-0.4-0.3-0.6-1.2-0.7-1.6c-0.5-1.7-0.6-3.4-0.9-5.1c-0.6-4.8-1.3-9.6-2.8-14.2c-2.8-8.3-11-13.6-19.1-8.5
					c-8.8,5.6-9.2,20.4-9.6,29.6c0.9-0.3,1.8-0.6,2.6-0.9c-10.7-2.6-23.2,1.2-27.1,12.3c-0.2,0.5,1,0.3,1.2,0.3
					c11.2-2.2,9.8,12,3.9,16.8c-0.6,0.5,2.1,0.2,2.6-0.2c8.1-6.6,5.8-20-6-17.6c0.4,0.1,0.8,0.2,1.2,0.3c3.3-9.4,12.5-13,21.9-10.7
					c0.6,0.1,2.6-0.2,2.6-0.9c0.5-9.2,0.9-20.7,7.7-27.7c4.4-4.6,10.5-0.3,13.2,3.8c2.2,3.4,3.1,7.7,3.8,11.6
					c0.4,2.4,0.3,14,3.7,14.2c0.8,0.1,1.6-0.3,2.2-0.5c5.1-2.3,10.2-4.9,15.8-2.8c5.4,2,6.7,8.3,6.7,13.3c0.9-0.3,1.9-0.6,2.8-0.9
					c-6.4-4.2-12.6,0.9-13.2,7.9c-1,10.2,11.1,18,8.7,28.5C213.4,229.4,216.3,228.9,216.4,228.2L216.4,228.2z"/>
			</g>
			<g>
				<path class="st2" d="M230.9,174.7c-5.1,0.5-10.3,0.7-14.6-2.6c-4-3.1-8.1-11.4-5.1-16.3c2.5-4,7.5,1.7,8,4.1
					c0.5,1.9,1.4,3.1,3,4.1c2.8,1.9,6.5,0.1,8.5-1.9c1.2-1.2-1.7-1.1-2.3-0.5c-4.9,5.1-6.3-4.2-8.3-6.4c-1.5-1.6-4-1.9-6-2
					c-3.6-0.2-6.2,2.3-6.7,5.7c-0.9,5.9,3.3,12.5,8,15.6c4.3,2.9,10.2,2.4,15.1,1.9C231.9,176.2,232.9,174.5,230.9,174.7
					L230.9,174.7z"/>
				<path class="st2" d="M328,169c-0.9-12-7.6-23.6-12.3-34.4c-2.4-5.5-5.3-10.7-6.8-16.5c-1-4,0.9-10.3-2.5-13.4
					c-5-4.5-12.3,6.1-13.4,9.6c-3.1,10.4,0.9,19.9,6,28.9c0.9-0.4,1.8-0.8,2.7-1.3c-4.1-4.6-8.4-8.7-13.5-12.2
					c-3.2-2.2-5.4-4.2-3.9-8.5c0.9-2.6,1.7-4.4,0.2-6.8c-2.6-4-9.9-3.3-13.3-1c-5.3,3.8-6.1,10.1-2.9,15.6c0.8-0.5,1.6-1,2.4-1.5
					c-9.8-7.9-19-16.4-19.6-29.8c-0.2-5.9,1.2-11.8,4.8-16.5c4.7-6.4,14.5-10.1,21.5-5.4c2.6,1.8,3.8,4.9,3.9,7.9
					c0.1,2.7-1.5,6.4-4,3.3c-1.3-1.7-4.1-2-6.1-1.4c-8,2.3-6.8,12.6-1.9,17.5c4.8,4.9,13.1,4.9,18.8,2c7.9-4.1,10.5-12.9,9.7-21.2
					c-1.6-17.9-16.1-28.2-33.7-26c-21.9,2.7-37,29.8-25.2,49.3c0.8-0.5,1.6-1,2.4-1.5c-9.5-5.5-19.1-1.2-24.9,7.5
					c-5.1,7.7-4,19.9,6.1,22.4c2.9,0.7,8.3,0.9,10.5-1.8c1.5-1.9,1.4-4.5-0.5-6.2c-1.6-1.4-3.4-1.7-3.2-4.3c0.4-5.2,8.4-2.7,11-1.3
					c6.1,3.1,11.1,9,16.3,13.3c0.4-0.6,0.8-1.2,1.3-1.9c-4.7,0.2-8.8,1.6-12.4,4.7c-1.7,1.4-3.1,3.2-4.4,4.9
					c-2.6,3.4-6.4,4.8-10.5,5.3c-7.8,0.9-5,10.2-1.9,14.7c1.8,2.5,3.2,2.6,1.5,5.5c-0.9,1.6-1.5,3.9-1.2,5.8c0.4,2.6,1.6,4.5,2.5,7
					c1,3,0.8,6.4,0.6,9.5c-0.3,6.8,8.7,9.5,14.2,9.5c2.2,0,4.3-0.7,6.3-1.5c1.1-0.4,2.3-1.2,3.3-1.8c1.2-0.7,3.7,0.6,4.9,0.9
					c5.6,1.4,11.5,0.7,16.9-1.3c8.1-2.9,12.8-9.1,13.9-17.4c1-7.2-1.5-15.1-9-17.2c-6.1-1.7-13.2,0.2-15,6.6
					c-0.8,2.9-0.7,5.1-4.6,4.2c-5.4-1.2-6.4-8.8-6.2-13.2c0.4-9.5,12.1-14.4,20.4-13.1c16.6,2.6,31.7,15.6,32,33c0,1.5,3,1,2.9-0.2
					c-0.3-17.5-13.6-29.1-29.5-33.8c-13.1-3.9-30.1,3.1-28.6,18.7c0.6,6.6,5.1,11.9,12,10.6c6.1-1.2,2.7-9.1,8.7-10.9
					c13.3-4,15.8,11.9,12.8,20.8c-2,5.9-7.5,9.2-13.2,10.9c-4.4,1.3-9.1,1-13.5-0.1c-1.5-0.4-3.7-2.1-5.2-0.9
					c-5,3.7-10.3,4.8-16,1.9c-2.5-1.3-4.7-3.1-4.5-5.9c0.2-3.4,0.1-6.8-0.7-10.1c-0.4-1.6-1.4-3.1-2-4.5c-1.4-3.5,0.3-6.9,2.2-9.7
					c0.3-0.5,0.4-0.8-0.1-1.2c-3.6-3.2-6.6-7.4-6.1-12.4c0.3-2.9,5.8-2.8,8-3.7c3.3-1.4,5.6-3.3,7.8-6.2c3.4-4.5,7.6-7.1,13.4-7.4
					c0.8,0,2.3-1,1.3-1.9c-6.7-5.6-13-13.4-21.9-15.3c-4.7-1-12.1,1.4-10.4,7.5c0.7,2.5,3.8,2.5,4.6,5.1c1.1,3.9-6.3,2.9-8,2.5
					c-2.9-0.7-4.8-3.1-5.9-5.7c-1.9-4.6-0.3-10.1,2.1-14.2c4.2-7.3,12.4-10.4,19.9-6.1c0.9,0.5,3.2-0.2,2.4-1.5
					C231.2,88.8,243,65,261.8,60.4c10.7-2.6,23.1,1.2,29,10.7c4.5,7.2,5.9,18.3,2.1,25.9c-5.5,11.3-22.5,10.3-24.6-2.7
					c-0.5-3.2,0.9-7.2,4.7-6.9c1.4,0.1,2.1,1.5,3.2,2.3c1.8,1.4,4.4,1.1,6.1-0.3c2.6-2.1,2.2-6.7,1.5-9.6c-1-4.1-4.8-6.7-8.6-7.9
					c-8.8-2.7-18.6,3.5-23.3,10.7c-4.9,7.5-4.7,18.5-1.4,26.5c3.5,8.3,11.1,14.4,18,19.9c0.8,0.7,3.2-0.2,2.4-1.5
					c-2-3.4-2.2-6.6-0.6-10.2c2-4.3,8.3-5.2,11.5-1.9c1.8,1.9-0.3,4.8-0.8,6.8c-0.5,2.1-0.4,3.3,0.5,5.2c1.1,2.2,4.4,3.7,6.3,5
					c4.2,3,7.8,6.7,11.2,10.5c0.8,0.9,3.4,0.1,2.7-1.3c-4.4-7.7-8-15.7-6.5-24.7c0.7-4.2,2.9-8.5,6.7-10.7c4.5-2.6,3.7,9.8,4.2,12.3
					c1.7,8.3,6.6,16.4,10,24.2c3.8,8.6,8.4,17.3,9.1,26.8C325.2,171.1,328.1,170.4,328,169L328,169z"/>
			</g>
			<g>
				<path class="st2" d="M129.8,175.3c5.1,0.5,10.3,0.7,14.9-1.9c5-2.8,8-8.9,8.3-14.5c0.2-3.5-2.2-6.5-5.9-6.4
					c-2.3,0.1-4.3,0.7-6.2,2.1c-2.4,1.8-3.2,11.1-8.2,5.9c-0.9-0.9-3.6,0.3-2.7,1.2c2.3,2.4,4.9,2.9,8,1.6c4.5-2,3.2-10.5,9.7-8.6
					c5.9,1.7,0,12.6-2,15c-3.7,4.4-9.8,4.1-15,3.5C129.5,173.1,127.8,175.1,129.8,175.3L129.8,175.3z"/>
				<path class="st2" d="M38.9,168c0.7-9.6,5.5-18.5,9.3-27.1c3.7-8.5,8.9-17.1,9.8-26.4c0.3-3.4-1.1-10,4.1-6.3
					c3.3,2.4,4.9,6.3,5.6,10.2c1.7,8.6-2.3,16.9-6.4,24.2c-0.4,0.6,2.4,0.1,2.8-0.3c3.3-3.7,6.8-7.3,10.9-10.2
					c2.2-1.6,4.3-2.8,6.1-4.8c3.2-3.6-2.8-8.1-0.1-11.8c3.4-4.8,9.8,0.7,11.3,4c1.5,3.2,0.6,6.6-1.1,9.4c-0.4,0.7,2.3,0.1,2.6-0.1
					c8.1-6.6,16.6-13.7,19-24.3c2.4-10.2-1.1-21.4-10-27.2c-6.8-4.4-16.7-4.6-22.3,1.9c-3.7,4.4-3.1,14.7,4.4,12.2
					c0.9-0.3,1.7-1,2.4-1.6c2-1.9,4.3-0.4,5.6,1.5c4,6-2.3,13.8-8.1,15c-12.2,2.5-17.7-11.7-16.6-21.3c0.9-8.5,4.9-16.4,12.7-20.5
					c11.2-5.8,25.4-1.8,33.7,7c8.8,9.3,11.8,25.2,5,36.5c-0.4,0.7,2.1,0.2,2.3,0c12-7,24,7.8,21.9,19.3c-0.4,2.3-1.7,4.3-3.5,5.7
					c-2.2,1.9-9.4,2.7-10.5-1.4c-0.8-3,3.1-3.3,4.1-5.3c3-6-5.4-7.6-9.5-6.7c-8.8,1.9-15,9.6-21.6,15c-0.4,0.3-0.4,0.7,0.2,0.8
					c5,0.3,8.8,2.1,12.3,5.7c3.1,3.2,5,6.1,9.3,7.7c3.1,1.2,6.9,0.1,7.7,4c1,4.8-2.8,9.5-6.1,12.3c-0.1,0.1-0.1,0.2-0.1,0.3
					c2.2,3.1,3.4,5.9,2.5,9.8c-0.6,2.5-2.1,4.5-2.5,7.1c-0.7,4.3,1.3,8.6-2.4,11.7c-3.7,3.2-8.5,3.3-12.9,1.6
					c-1.6-0.6-3.5-3.1-5.4-2.8c-4.4,0.7-7.7,2.4-12.4,2.1c-4.1-0.3-8.1-1.9-11.6-4.1c-7.5-4.8-9.6-16-5.8-23.8
					c2.7-5.7,12.7-6.5,15.5-0.6c0.9,1.9,0.5,4.7,2.1,6.2c3.2,2.8,9.2,0.1,11.6-2.4c6.1-6.6,3-17.4-3.6-22c-11-7.6-25.4-2.3-35.4,4.3
					c-9,6-14.2,15.2-14.5,26c0,0.6,2.9,0.2,2.9-0.8c0.3-16.9,14.5-29.3,30.6-31.9c7.9-1.3,17.2,3.7,19.6,11.4
					c1.4,4.4,0.2,10.4-2.9,13.8c-2.9,3.1-6.1,0.9-6.7-2.2c-1.3-6.6-6.2-8.1-12.5-7.4C76,162,72.1,166.8,71.3,173
					c-2.8,19.8,19,27,34.6,20.9c-0.6,0-1.3,0.1-1.9,0.1c7.1,5.2,16,5.4,22.8-0.4c2.2-1.9,2.3-3.2,2.2-5.9c-0.1-2.8,0-5.6,0.7-8.4
					c0.6-2.6,2.2-4.6,2.4-7.4c0.3-3.5-3.6-6.2-0.7-9.2c1.6-1.6,2.7-3.7,3.5-5.8c0.9-2.5,1.2-6.8-1.5-8.2c-1.3-0.7-3.6-0.5-5-0.9
					c-3.2-0.7-5.8-2.6-7.9-5.1c-3.5-4.2-6.6-7.3-12.1-8.5c-3.3-0.7-0.3-1.9,1.3-3.3c2.5-2.1,4.8-4.4,7.4-6.5
					c3.1-2.6,6.9-4.7,11.2-3.9c2.5,0.5,3.9,3.1,3.3,5.4c-0.7,2.4-4.1,2.4-4.5,5.5c-0.4,3,3.3,3.8,5.5,4.1
					c7.1,0.8,14.4-3.7,14.6-11.3c0.2-9.7-7.3-19.3-17.3-19.7c-3.3-0.1-6.6,1.1-9.5,2.7c0.8,0,1.5,0,2.3,0c8.9-14.7,1.4-35-12.9-43.1
					c-14.1-8-35.2-3.5-41.9,11.9c-3.2,7.4-3.9,17,0.4,24c3.7,6.1,10.9,8.7,17.6,6.9c7.2-1.8,13.9-8.9,10.2-16.7
					c-2-4.2-8.5-3.8-11.1-0.6c-1.7,2.1-2.8-1.2-3.1-2c-0.6-1.9-0.3-4.2,0.2-6c1.7-6.3,9-7.1,14.4-5.4c7.4,2.4,12.1,9,13.7,16.3
					c3.6,15.8-7.1,26.8-18.4,35.9c0.9,0,1.7-0.1,2.6-0.1c6.3-10.7-6.9-21-15.7-12.8c-1.9,1.8-0.9,4.4-0.1,6.4c1.5,3.8,0,6.2-3.1,8.3
					c-5.1,3.5-9.5,7.5-13.6,12.2c0.9-0.1,1.8-0.2,2.8-0.3c4.9-8.6,8.6-17.7,5.7-27.6c-1.4-4.7-7.6-11.9-13-8.1
					c-3.1,2.2-1.7,8.7-2.2,11.7c-1,6.5-4.7,12.4-7.3,18.4c-4.5,10.2-10.5,21-11.4,32.3C36,169.3,38.9,168.9,38.9,168L38.9,168z"/>
			</g>
		</g>
	</g>
	<path class="st3" d="M205.6,266.4c-7.4,0-14.3-2.9-19.5-8L84.3,156.5c-5.2-5.2-8-12.1-8-19.5s2.9-14.3,8-19.5L186.1,15.7
		c5.2-5.2,12.1-8,19.5-8c7.4,0,14.3,2.9,19.5,8l101.8,101.8c10.8,10.8,10.8,28.3,0,39L225.1,258.3
		C219.9,263.5,213,266.4,205.6,266.4z M205.6,11.6c-6.3,0-12.3,2.4-16.7,6.9L87.1,120.3c-4.4,4.4-6.9,10.4-6.9,16.7
		s2.4,12.3,6.9,16.7l101.8,101.8c4.4,4.4,10.4,6.9,16.7,6.9c6.3,0,12.3-2.4,16.7-6.9l101.8-101.8c9.2-9.2,9.2-24.2,0-33.4
		L222.3,18.5C217.8,14.1,211.9,11.6,205.6,11.6z"/>
	<g>
		<g id="XMLID_122_">
			<path id="XMLID_137_" class="st4" d="M50.3,357.6c0,3.4-0.1,3.5-1,4c-4.8,2.5-11.5,3.4-15.8,3.4c-5.7,0-16.3-0.7-24.6-8
				C4.3,353,0,345,0,335.7c0-12,5.8-20.4,12.5-24.6c6.7-4.2,14.1-4.7,19.9-4.7c4.7,0,10,1,11.4,1.3c1.6,0.4,4.2,0.7,6.1,0.7
				c0.7,0.1,0.9,0.4,0.9,0.7c0,1-0.5,3.1-0.5,10.6c0,1.2-0.1,1.6-0.7,1.6c-0.4,0-0.4-0.4-0.5-1.1c-0.1-1-0.4-3.1-1.6-4.9
				c-1.9-2.8-7.9-6.1-17.6-6.1c-4.7,0-10.3,0.4-16,4.9c-4.3,3.4-7.4,10.2-7.4,19c0,10.5,5.3,18.2,7.9,20.7c5.9,5.8,12.7,8,19.6,8
				c2.7,0,6.6-0.4,8.5-1.6c1-0.5,1.5-1.3,1.5-2.6v-12.7c0-6.1-0.4-6.9-3.4-7.7c-0.6-0.1-1.9-0.2-2.5-0.2c-0.3,0-0.6-0.1-0.6-0.4
				c0-0.4,0.4-0.6,1.2-0.6c3.4,0,8.1,0.2,8.4,0.2c0.4,0,5.1-0.2,7.3-0.2c0.8,0,1.2,0.1,1.2,0.6c0,0.3-0.3,0.4-0.6,0.4
				c-0.5,0-1,0.1-1.9,0.2c-2,0.4-2.6,1.6-2.8,4.3c-0.2,2.4-0.2,4.6-0.2,7.8V357.6z"/>
			<path id="XMLID_132_" class="st4" d="M64.4,335.6c0-12.1,8.8-29.2,29.5-29.2c16.8,0,29.4,10.6,29.4,28
				c0,16.7-11.8,30.6-29.8,30.6C73,365,64.4,349.1,64.4,335.6z M116.1,336.5c0-17.9-10.9-27.6-22.7-27.6c-12.5,0-21.8,8.2-21.8,24.6
				c0,17.4,10.5,28.6,23.9,28.6C102.2,362.1,116.1,358.3,116.1,336.5z M95.6,294c1.3,0.7,6.3,4,8.4,5.6c0.7,0.5,0.8,0.7,0.8,0.9
				c0,0.1,0,0.2-0.3,0.4l-2.1,1.4c-0.3,0.1-0.4,0.2-0.7-0.1c-1.9-1.6-5.9-4.3-7.3-5c-0.3-0.2-0.7-0.4-0.9-0.4
				c-0.2,0-0.5,0.1-1.1,0.4c-1.8,0.9-4.9,2.8-7.6,4.5c-0.7,0.4-1.2,0.7-1.6,0.7c-0.5,0-0.4-0.5,0.4-1.1c0.8-0.7,8.7-6.6,9.6-7.3
				c0.7-0.5,1-0.7,1.2-0.7C94.6,293.4,94.9,293.5,95.6,294z M114.7,289.2c0.4,0.6,0.1,0.8-0.3,0.8c-0.2,0-1.6,0.4-2.8,0.9
				c-3.4,1.3-5.4,2.4-7.6,3.5c-0.5,0.3-1,0.4-1.2,0.4c-0.1,0-0.5,0-0.5-0.2c0-0.2,0.4-0.6,0.7-1c1.8-1.8,4.7-4.6,6.6-6
				c1-0.7,1.8-1.2,2.2-1.2s0.7,0.1,1.2,0.6C113.5,287.7,114.1,288.4,114.7,289.2z"/>
			<path id="XMLID_130_" class="st4" d="M197,354.3c0.3,2.7,0.8,6.9,4,7.9c2.2,0.7,3.9,0.7,4.6,0.7c0.4,0,0.8,0.1,0.8,0.4
				c0,0.4-0.2,0.6-1.1,0.6c-1.6,0-10.2-0.2-12.9-0.4c-1.7-0.1-2.1-0.4-2.1-0.7c0-0.3,0.1-0.4,0.5-0.5c0.5-0.2,0.4-1.3,0.3-2.7
				l-3.6-39L169,359.8c-1.6,3.3-1.8,4-2.5,4c-0.5,0-0.9-0.7-2.3-3.4c-1.9-3.7-8.4-16.6-8.7-17.3c-0.7-1.3-9.3-19.8-10.1-21.8
				l-3.1,35.2c-0.1,1.2-0.2,2.2-0.2,3.5c0,1.9,0.9,2.5,2,2.7c1.3,0.3,2.2,0.3,2.7,0.3c0.4,0,0.7,0.1,0.7,0.4c0,0.5-0.4,0.7-1.1,0.7
				c-2.8,0-6.6-0.2-7.2-0.2c-0.7,0-4.3,0.2-6.3,0.2c-0.7,0-1.3-0.1-1.3-0.6c0-0.3,0.4-0.4,0.7-0.4c0.6,0,1.1,0,2.2-0.2
				c2.5-0.4,2.6-3.1,3-6.2l5.4-48.6c0.1-0.8,0.4-1.5,0.8-1.5c0.4,0,0.7,0.3,1.1,1.1l22.9,47l22-46.9c0.3-0.7,0.6-1.2,1.1-1.2
				c0.5,0,0.7,0.6,0.9,2L197,354.3z"/>
			<path id="XMLID_128_" class="st4" d="M250.4,342.4c0,11,0.3,15.8,1.6,17.1c1.2,1.2,3.1,1.7,9,1.7c4,0,7.3-0.1,9-2.2
				c1-1.2,1.7-3.1,1.9-4.5c0.1-0.6,0.2-1,0.7-1c0.4,0,0.4,0.3,0.4,1.1s-0.5,5.3-1.1,7.5c-0.5,1.7-0.7,2-4.7,2
				c-6.4,0-12.8-0.4-20-0.4c-2.3,0-4.6,0.2-7.3,0.2c-0.8,0-1.2-0.1-1.2-0.6c0-0.2,0.1-0.4,0.6-0.4c0.7,0,1.6-0.1,2.2-0.3
				c1.5-0.3,1.9-1.9,2.2-4.1c0.4-3.1,0.4-9,0.4-16.2v-13.2c0-11.7,0-13.8-0.2-16.1c-0.1-2.5-0.7-3.7-3.2-4.3
				c-0.6-0.1-1.9-0.2-2.5-0.2c-0.3,0-0.6-0.1-0.6-0.4c0-0.4,0.4-0.6,1.2-0.6c3.4,0,8.1,0.2,8.4,0.2c0.4,0,5.8-0.2,8.1-0.2
				c0.8,0,1.2,0.1,1.2,0.6c0,0.3-0.3,0.4-0.6,0.4c-0.5,0-1.6,0.1-2.5,0.2c-2.2,0.4-2.8,1.6-2.9,4.3c-0.2,2.4-0.2,4.5-0.2,16.1V342.4
				z"/>
			<path id="XMLID_125_" class="st4" d="M295.3,341.9c-0.4,0-0.6,0.2-0.7,0.6l-4.5,13.2c-0.7,1.9-1,3.7-1,5c0,1.5,1.4,2.2,2.7,2.2
				c0.2,0,0.4,0,0.7,0c0.7,0,1,0.1,1,0.4c0,0.4-0.7,0.6-1.3,0.6c-1.8,0-4.8-0.2-5.6-0.2c-0.8,0-4.9,0.2-8.4,0.2
				c-1,0-1.4-0.1-1.4-0.6c0-0.3,0.4-0.4,1-0.4c0.5,0,1.2-0.1,1.8-0.1c3.4-0.4,4.9-3.3,6.3-7l17-46.4c0.9-2.5,1.2-2.9,1.6-2.9
				c0.4,0,0.7,0.4,1.6,2.7c1.1,2.8,12.9,33.7,17.4,45.1c2.7,6.7,4.9,7.8,6.4,8.3c1.1,0.4,2.3,0.4,2.9,0.4c0.4,0,0.8,0.1,0.8,0.4
				c0,0.4-0.7,0.6-1.5,0.6c-1.1,0-6.6,0-11.7-0.1c-1.4-0.1-2.2-0.1-2.2-0.5c0-0.3,0.2-0.4,0.5-0.5c0.4-0.1,0.9-0.8,0.4-2l-7-18.4
				c-0.1-0.3-0.3-0.4-0.7-0.4H295.3z M310.4,339.2c0.4,0,0.4-0.2,0.3-0.5l-7.1-20.2c-0.4-1.1-0.7-1.1-1.1,0l-6.6,20.2
				c-0.1,0.4,0,0.5,0.2,0.5H310.4z"/>
			<path id="XMLID_123_" class="st4" d="M401.6,354.3c0.3,2.7,0.8,6.9,4,7.9c2.2,0.7,3.9,0.7,4.6,0.7c0.4,0,0.8,0.1,0.8,0.4
				c0,0.4-0.2,0.6-1.1,0.6c-1.6,0-10.2-0.2-12.9-0.4c-1.7-0.1-2.1-0.4-2.1-0.7c0-0.3,0.1-0.4,0.5-0.5c0.5-0.2,0.4-1.3,0.3-2.7
				l-3.6-39l-18.5,39.3c-1.6,3.3-1.8,4-2.5,4c-0.5,0-0.9-0.7-2.3-3.4c-1.9-3.7-8.4-16.6-8.7-17.3c-0.7-1.3-9.3-19.8-10.1-21.8
				l-3.1,35.2c-0.1,1.2-0.2,2.2-0.2,3.5c0,1.9,0.9,2.5,2,2.7c1.3,0.3,2.2,0.3,2.7,0.3c0.4,0,0.7,0.1,0.7,0.4c0,0.5-0.4,0.7-1.1,0.7
				c-2.8,0-6.6-0.2-7.2-0.2c-0.7,0-4.3,0.2-6.3,0.2c-0.7,0-1.3-0.1-1.3-0.6c0-0.3,0.4-0.4,0.7-0.4c0.6,0,1.1,0,2.2-0.2
				c2.5-0.4,2.6-3.1,3-6.2l5.4-48.6c0.1-0.8,0.4-1.5,0.8-1.5c0.4,0,0.7,0.3,1.1,1.1l22.9,47l22-46.9c0.3-0.7,0.6-1.2,1.1-1.2
				c0.5,0,0.7,0.6,0.9,2L401.6,354.3z"/>
		</g>
	</g>
	<g>
		<path class="st3" d="M103.3,174c0,0,0.7-0.5,2-1.3c1.3-0.8,3.2-2.1,5.5-3.6c2.3-1.6,5.1-3.4,8.2-5.6c3-2.2,6.3-4.8,9.5-7.7
			c3.3-2.9,6.4-6.3,9.4-9.9c3-3.7,5.7-7.9,8.3-12.4c1.3-2.3,2.6-4.7,3.9-7.1c1.3-2.5,2.6-5,3.9-7.7c2.6-5.3,5.3-10.9,7.6-16.7
			l1.9-4.6c0.7-1.5,1.3-3.1,2-4.6c1.3-3.1,2.7-6.1,4.2-9c3-5.9,6.1-11.7,9.8-16.9c3.6-5.3,7.6-10.1,11.8-14.3
			c4.3-4.2,8.9-7.6,13.6-10c4.7-2.5,9.6-3.8,13.9-4.1c4.3-0.3,8,0.2,10.9,1c2.9,0.8,5,1.7,6.4,2.4c0.7,0.3,1.2,0.6,1.6,0.8
			c0.4,0.2,0.5,0.3,0.5,0.3l-0.9,2c0,0-0.2-0.1-0.6-0.2c-0.4-0.1-0.9-0.3-1.6-0.4c-1.4-0.3-3.5-0.8-6.1-1c-2.6-0.1-5.8,0-9.3,0.9
			c-3.4,0.9-7,2.7-10.5,5.3c-3.5,2.6-6.8,6.1-9.8,10.2c-3.1,4.1-5.8,8.8-8.3,13.9c-2.4,5.1-4.8,10.6-6.7,16.3
			c-1,2.9-1.9,5.8-2.8,8.7c-0.4,1.5-0.9,3-1.2,4.4l-0.6,2.2l-0.5,2.3c-0.8,3.2-1.6,6.4-2.5,9.6c-0.9,3.2-1.8,6.5-2.9,9.6
			c-1.1,3.2-2.4,6.4-3.8,9.4c-1.4,3.1-3.2,6-5,8.9c-3.7,5.7-8.3,10.7-13,14.8c-4.8,4.1-9.9,7.3-14.8,9.6c-4.9,2.3-9.5,3.8-13.6,4.8
			c-4.1,1-7.7,1.5-10.7,1.7c-3,0.2-5.4,0.3-6.9,0.2c-1.6,0-2.4-0.1-2.4-0.1L103.3,174z"/>
		<path class="st3" d="M232.8,80c0,0,0.5-0.7,1.3-1.9c0.4-0.6,0.8-1.2,1.3-2c0.5-0.8,1.1-1.7,1.6-2.7c0.6-1,1.2-2.1,1.8-3.3
			c0.6-1.2,1.2-2.4,1.7-3.8c0.5-1.3,1-2.7,1.4-4.1c0.4-1.4,0.7-2.8,0.8-4.3c0.3-2.9-0.1-5.7-1.3-8.2c-0.6-1.2-1.3-2.4-2.2-3.4
			c-0.9-1-1.8-1.9-2.7-2.7c-0.9-0.8-1.9-1.4-2.7-1.9c-0.8-0.5-1.6-0.9-2.3-1.3c-0.6-0.3-1.2-0.6-1.5-0.7c-0.4-0.2-0.5-0.3-0.5-0.3
			s0.2,0,0.6,0.1c0.4,0.1,1,0.2,1.7,0.3c0.7,0.2,1.6,0.4,2.6,0.7c1,0.3,2.1,0.7,3.3,1.2c1.2,0.5,2.5,1.2,3.8,2.1
			c1.3,0.9,2.6,2,3.7,3.4c1.1,1.4,2.2,3,2.9,4.7c0.8,1.7,1.3,3.6,1.6,5.5c0.3,1.9,0.5,3.8,0.4,5.6c0,1.8-0.1,3.7-0.4,5.4
			c-0.2,1.7-0.5,3.3-0.8,4.9c-0.3,1.5-0.7,3-1,4.3c-0.7,2.6-1.4,4.7-1.9,6.3c-0.5,1.4-0.7,2.2-0.7,2.2L232.8,80z"/>
		<path class="st3" d="M104.5,175.9c0,0,0.7-0.4,2.1-1.1c1.4-0.6,3.6-1.5,6.4-2.3c1.4-0.4,3-0.8,4.7-1.1c1.7-0.4,3.6-0.6,5.7-0.9
			c2-0.2,4.2-0.4,6.5-0.5c2.3-0.1,4.7-0.1,7.2,0c10.1,0.3,21.6,2,33.4,4.9c11.9,2.8,24.2,6.8,36.2,11.2l2.1,0.8l1.9,0.6
			c1.3,0.4,2.7,0.9,4.1,1.3c2.8,0.8,5.6,1.5,8.4,2.2c5.6,1.4,11.1,2.5,16.5,3.2c10.7,1.6,20.5,1.8,27.8-0.4c1.8-0.5,3.5-1.2,5-2
			c1.5-0.8,2.9-1.7,4.1-2.8c1.2-1,2.3-2.2,3.2-3.4c0.5-0.6,0.9-1.2,1.3-1.8c0.3-0.6,0.7-1.2,1-1.8c1.3-2.3,2.1-4.4,2.6-5.8
			c0.5-1.5,0.8-2.2,0.8-2.2s0.1,0.2,0.2,0.6c0.1,0.4,0.3,1,0.5,1.7c0.4,1.5,0.8,3.8,0.8,6.9c0,3.1-0.5,7-2.5,11.3
			c-1,2.1-2.4,4.3-4.1,6.3c-1.8,2-3.9,3.9-6.3,5.6c-4.8,3.3-10.6,5.7-16.7,7.1c-6.1,1.5-12.6,2.1-19.1,2c-6.5,0-13.2-0.7-19.8-1.9
			c-3.3-0.6-6.6-1.4-10-2.3c-1.7-0.5-3.3-0.9-5-1.5c-0.8-0.3-1.7-0.6-2.6-0.9l-2.4-0.9c-11.8-4.6-23.4-9.4-34.1-13.8
			c-10.8-4.4-20.8-8.4-29.5-11.4c-1.1-0.4-2.2-0.7-3.2-1.1c-1.1-0.3-2.1-0.7-3.1-1c-2-0.6-3.9-1.2-5.7-1.7c-1.8-0.5-3.5-0.9-5.1-1.3
			c-0.8-0.2-1.6-0.3-2.3-0.5c-0.7-0.2-1.5-0.3-2.1-0.4c-1.4-0.3-2.6-0.4-3.7-0.6c-1.1-0.1-2-0.2-2.8-0.3
			C105.3,176,104.5,175.9,104.5,175.9z"/>
	</g>
</g>
</svg>
